<svg xmlns="http://www.w3.org/2000/svg" width="60" height="60" viewBox="0 0 60 60">
  <g id="그룹_4960" data-name="그룹 4960" transform="translate(-989 -1049)">
    <rect id="사각형_1842" data-name="사각형 1842" width="60" height="60" transform="translate(989 1049)" fill="none"/>
    <path id="패스_741" data-name="패스 741" d="M889.616-512.963h-32.45v-4.724H843.894v4.724h-5.118v9.9h5.118v30.145h-5.062v9H868.02v-9H857.166v-30.145h12.2v5.4h6.3v4.646a3.6,3.6,0,0,0-2.587,3.453,3.583,3.583,0,0,0,.844,2.313,6.814,6.814,0,0,0-4.219,6.291,6.812,6.812,0,0,0,6.805,6.805,6.812,6.812,0,0,0,6.8-6.805v-.9h-1.8v.9a5.011,5.011,0,0,1-5.006,5.006,5.011,5.011,0,0,1-5.005-5.006,5.01,5.01,0,0,1,5.005-5h.9v-.075a3.6,3.6,0,0,0,2.869-3.524,3.6,3.6,0,0,0-2.812-3.511v-4.588h6.748v-5.4h5.4Zm-11.135,23.4a1.8,1.8,0,0,1-1.8,1.8,1.8,1.8,0,0,1-1.8-1.8,1.8,1.8,0,0,1,1.8-1.8h0A1.8,1.8,0,0,1,878.481-489.567ZM854.769-505.09l-9.076,9.076v-18.151Zm-9.076,12.521,9.076,9.076-9.076,9.075Zm.823-1.722,8.85-8.851v17.7Zm8.85-12.746-8.85-8.851h8.85Zm-14.791,2.172v-6.3h3.319v6.3Zm25.646,33.744v5.4H840.632v-5.4h25.589Zm-19.48-1.8,8.625-8.626v8.626Zm35.677-26.546H871.17v-3.6h11.248Zm5.4-5.4H857.166v-6.3h30.651Z" transform="translate(155.224 1569.687)"/>
  </g>
</svg>
