<svg xmlns="http://www.w3.org/2000/svg" width="60" height="60" viewBox="0 0 60 60">
  <g id="그룹_4956" data-name="그룹 4956" transform="translate(-517 -1049)">
    <rect id="사각형_1848" data-name="사각형 1848" width="60" height="60" transform="translate(517 1049)" fill="none"/>
    <g id="그룹_4949" data-name="그룹 4949" transform="translate(298.405 1569.575)">
      <path id="패스_709" data-name="패스 709" d="M223.6-473.033v9h50.84v-9Zm49.041,7.2H225.394v-5.4h47.242Z"/>
      <path id="패스_710" data-name="패스 710" d="M237.542-476.18v-18h-9v18Zm-7.2-16.2h5.4v14.4h-5.4Z"/>
      <path id="패스_711" data-name="패스 711" d="M269.486-476.18v-18h-9v18Zm-7.2-16.2h5.4v14.4h-5.4Z"/>
      <path id="패스_712" data-name="패스 712" d="M253.289-476.18v-18h-9v18Zm-7.2-16.2h5.4v14.4h-5.4Z"/>
      <rect id="사각형_1832" data-name="사각형 1832" width="50.841" height="1.8" transform="translate(223.595 -499.578)"/>
      <path id="패스_713" data-name="패스 713" d="M249.015-510.826a9.008,9.008,0,0,1,9,9h1.8a10.81,10.81,0,0,0-9.9-10.757v-4.99h-1.8v4.99a10.81,10.81,0,0,0-9.9,10.757h1.8A9.008,9.008,0,0,1,249.015-510.826Z"/>
    </g>
  </g>
</svg>
