<svg xmlns="http://www.w3.org/2000/svg" width="60" height="60" viewBox="0 0 60 60">
  <g id="그룹_4957" data-name="그룹 4957" transform="translate(-635 -1049)">
    <rect id="사각형_1845" data-name="사각형 1845" width="60" height="60" transform="translate(635 1049)" fill="none"/>
    <g id="그룹_4950" data-name="그룹 4950" transform="translate(260.764 1567.979)">
      <path id="패스_714" data-name="패스 714" d="M428.035-513.6H381.2a3.78,3.78,0,0,0-3.775,3.775v30.092a3.78,3.78,0,0,0,3.775,3.775h17.8l-1.033,9.276h-3.4a.964.964,0,0,0-.964.964.964.964,0,0,0,.964.964h20.095a.964.964,0,0,0,.964-.964.964.964,0,0,0-.964-.964h-3.4l-1.033-9.276h17.8a3.779,3.779,0,0,0,3.775-3.775v-30.092A3.779,3.779,0,0,0,428.035-513.6Zm-18.71,46.918h-9.414l1.034-9.276h7.348Zm20.557-13.051a1.85,1.85,0,0,1-1.848,1.848H381.2a1.849,1.849,0,0,1-1.847-1.848v-30.092a1.849,1.849,0,0,1,1.847-1.848h46.833a1.85,1.85,0,0,1,1.848,1.848Z"/>
      <path id="패스_715" data-name="패스 715" d="M397.31-499.053a.915.915,0,0,0-.071-.2c0-.006,0-.015-.008-.023l-3.364-6.726a.961.961,0,0,0-.861-.532.963.963,0,0,0-.862.532l-3.364,6.726c0,.008,0,.016-.009.023a1.04,1.04,0,0,0-.071.2l0,.008a1,1,0,0,0-.02.2v13.826a.964.964,0,0,0,.964.964h6.726a.964.964,0,0,0,.964-.964v-13.826a1,1,0,0,0-.02-.2Zm-4.3-4.365,1.8,3.607H391.2Zm2.4,17.433h-4.8v-11.9h4.8Z" transform="translate(0.802 0.503)"/>
      <path id="패스_716" data-name="패스 716" d="M419.355-507.081H399.549a.963.963,0,0,0-.964.963v8.969a.964.964,0,0,0,.964.964h19.805a.964.964,0,0,0,.964-.964v-8.969A.963.963,0,0,0,419.355-507.081Zm-.964,8.969H400.513v-7.041h1.062v4.268H403.5v-4.268h1.434v2.4h1.928v-2.4h1.809v4.268H410.6v-4.268h1.434v2.4h1.928v-2.4H415.4v4.268h1.928v-4.268h1.061Z" transform="translate(1.508 0.465)"/>
    </g>
  </g>
</svg>
