<svg xmlns="http://www.w3.org/2000/svg" width="60" height="60" viewBox="0 0 60 60">
  <g id="그룹_4961" data-name="그룹 4961" transform="translate(-1107 -1049)">
    <rect id="사각형_1846" data-name="사각형 1846" width="60" height="60" transform="translate(1107 1049)" fill="none"/>
    <g id="그룹_4953" data-name="그룹 4953" transform="translate(-34.622 1570.14)">
      <path id="패스_727" data-name="패스 727" d="M1191.017-491.369h-3.777l.015-4.631h7.346a.9.9,0,0,0,.9-.9v-6.244h-1.8v5.344h-6.44l.027-8.533a5.072,5.072,0,0,0-1.491-3.62,5.071,5.071,0,0,0-3.615-1.5h-20.8a5.076,5.076,0,0,0-3.613,1.5,5.073,5.073,0,0,0-1.493,3.614l.009,8.543h-6.227v-5.981h-1.8v6.881a.9.9,0,0,0,.9.9h7.129l.005,4.631h-3.737c-3,0-4.934,2.29-4.934,5.834v16.051h5.1a5.92,5.92,0,0,0,5.839,5.015,5.92,5.92,0,0,0,5.84-5.015h14.765a5.92,5.92,0,0,0,5.839,5.015,5.919,5.919,0,0,0,5.839-5.015h5.1v-16.051C1195.951-489.079,1194.014-491.369,1191.017-491.369Zm-32.453,25.1a4.12,4.12,0,0,1-4.013-3.215h8.027A4.121,4.121,0,0,1,1158.564-466.269Zm26.444,0a4.12,4.12,0,0,1-4.013-3.215h8.026A4.12,4.12,0,0,1,1185.008-466.269Zm9.143-5.015h-44.729v-3.7h44.729Zm-44.729-5.495v-8.756c0-.947.226-4.034,3.134-4.034h5.538l-.018-16.775a3.286,3.286,0,0,1,.968-2.341,3.285,3.285,0,0,1,2.339-.969h20.8a3.287,3.287,0,0,1,2.341.971,3.285,3.285,0,0,1,.965,2.345l-.053,16.769h5.582c2.908,0,3.134,3.087,3.134,4.034v8.756Z"/>
      <path id="패스_728" data-name="패스 728" d="M1181.373-505.527H1162.2a.9.9,0,0,0-.9.9v10.966a.9.9,0,0,0,.9.9h19.173a.9.9,0,0,0,.9-.9v-10.966A.9.9,0,0,0,1181.373-505.527Zm-.9,10.966H1163.1v-9.166h17.373Z"/>
      <path id="패스_729" data-name="패스 729" d="M1150.059-511.236a4.01,4.01,0,0,1,3.9-4.105h35.85a4.01,4.01,0,0,1,3.9,4.105v2.856h1.8v-2.856a5.81,5.81,0,0,0-5.7-5.9h-35.85a5.81,5.81,0,0,0-5.7,5.9v2.856h1.8Z"/>
      <path id="패스_730" data-name="패스 730" d="M1156.541-486.8a3.871,3.871,0,0,0-4.112,3.6,3.87,3.87,0,0,0,3.6,4.111c.087.005.172.008.258.008a3.869,3.869,0,0,0,3.853-3.607h0A3.868,3.868,0,0,0,1156.541-486.8Zm-.393,5.914a2.068,2.068,0,0,1-1.923-2.2,2.067,2.067,0,0,1,2.058-1.927c.046,0,.092,0,.138,0a2.068,2.068,0,0,1,1.923,2.2A2.069,2.069,0,0,1,1156.148-480.887Z"/>
      <path id="패스_731" data-name="패스 731" d="M1187.544-486.8a3.866,3.866,0,0,0-4.111,3.6,3.841,3.841,0,0,0,.948,2.8,3.845,3.845,0,0,0,2.651,1.31c.088.005.175.008.262.008a3.834,3.834,0,0,0,2.539-.957,3.838,3.838,0,0,0,1.31-2.651A3.868,3.868,0,0,0,1187.544-486.8Zm1.8,3.992a2.047,2.047,0,0,1-.7,1.415,2.044,2.044,0,0,1-1.495.507,2.056,2.056,0,0,1-1.417-.7,2.048,2.048,0,0,1-.506-1.5,2.067,2.067,0,0,1,2.058-1.927c.045,0,.091,0,.138,0a2.067,2.067,0,0,1,1.922,2.2Z"/>
      <rect id="사각형_1833" data-name="사각형 1833" width="13.229" height="1.8" transform="translate(1165.175 -484.079)"/>
    </g>
  </g>
</svg>
