<?xml version="1.0" encoding="utf-8"?>
<!-- Generator: Adobe Illustrator 25.2.1, SVG Export Plug-In . SVG Version: 6.00 Build 0)  -->
<svg version="1.1" id="레이어_1" xmlns="http://www.w3.org/2000/svg" xmlns:xlink="http://www.w3.org/1999/xlink" x="0px"
	 y="0px" viewBox="0 0 100 100" style="enable-background:new 0 0 100 100;" xml:space="preserve">
<style type="text/css">
	.st0{fill:#FFFFFF;}
	.st1{fill:none;}
</style>
<g>
	<path class="st0" d="M42,71.9v3H30.8v-3h3.3v-1.5h4.7v1.5H42z M37.6,75.4c1.3,0,2.3,0.3,3,1s1.2,1.6,1.2,2.7c0,1.1-0.4,2-1.2,2.7
		c-0.8,0.7-1.8,1-3,1h-2.3c-1.3,0-2.3-0.3-3-1c-0.8-0.7-1.2-1.6-1.2-2.7c0-1.1,0.4-2,1.2-2.7c0.8-0.7,1.8-1,3-1H37.6z M43.6,89.9
		v-2.6H31.3v-3.5l17,0v6.2H43.6z M37,79.8c0.2,0,0.3-0.1,0.5-0.2c0.1-0.1,0.2-0.3,0.2-0.5c0-0.2-0.1-0.3-0.2-0.4
		c-0.1-0.1-0.3-0.2-0.5-0.2h-1.2c-0.2,0-0.3,0.1-0.5,0.2c-0.1,0.1-0.2,0.3-0.2,0.4c0,0.2,0.1,0.3,0.2,0.5c0.1,0.1,0.3,0.2,0.5,0.2
		H37z M48.3,75.1h1.9v3.8h-1.9v4h-4.7v-12h4.7V75.1z"/>
	<path class="st0" d="M69.2,86.2v3.8H51.7v-3.8h1.4v-7.5h4.4v7.5h1.3v-7.5h4.4v7.5H69.2z M52,74.9v-3.8h17l-0.2,11.2h-4.5v-7.5H52z"
		/>
</g>
<g id="그룹_4952" transform="translate(191.02 1569.299)">
	<path id="패스_722" class="st0" d="M-117-1547.6v37.2c0,1.3-1,2.3-2.3,2.3h-42.6c-1.3,0-2.3-1-2.3-2.3v-37.2h-1.8v37.2
		c0,2.3,1.9,4.1,4.1,4.1h42.6c2.3,0,4.1-1.9,4.1-4.1v-37.2H-117z"/>
	<path id="패스_723" class="st0" d="M-161.1-1513c0.2,0.1,0.3,0.2,0.5,0.2c0.1,0,0.2,0,0.3-0.1c0.1,0,8.2-2.8,19.5,0c0,0,0,0,0,0
		c0,0,0.1,0,0.1,0c0,0,0.1,0,0.1,0c0,0,0.1,0,0.1,0c0,0,0.1,0,0.1,0c0,0,0,0,0.1,0c0.1,0,8.3-2.8,19.5,0c0.1,0,0.1,0,0.2,0
		c0.2,0,0.4-0.1,0.6-0.2c0.2-0.2,0.3-0.4,0.3-0.7v-37.3c0-0.4-0.2-0.7-0.6-0.8c-1.1-0.5-2.3-0.9-3.5-1.2v-7.4c0-0.3-0.2-0.6-0.5-0.8
		c-0.3-0.2-0.6-0.2-0.9,0l-15.7,9.1c-11.3-4.4-19.9,0-20.3,0.2c-0.3,0.2-0.5,0.5-0.5,0.8v37.3
		C-161.5-1513.5-161.4-1513.2-161.1-1513z M-124.1-1524.6c0.2-0.2,0.4-0.4,0.4-0.7v-25.8c0.8,0.2,1.5,0.5,2.2,0.7v35.5
		c-5.1-1.2-10.4-1.4-15.6-0.6L-124.1-1524.6z M-139.5-1550.7l13.9-8.1v33.1l-13.9,9.7V-1550.7z M-159.7-1550.4
		c5.9-2.3,12.4-2.3,18.2,0v35.5c-3.1-0.7-6.3-1.1-9.5-1.1c-2.9,0-5.9,0.3-8.7,1V-1550.4z"/>
</g>
<rect class="st1" width="100" height="100"/>
</svg>
