<?xml version="1.0" encoding="utf-8"?>
<!-- Generator: Adobe Illustrator 25.2.1, SVG Export Plug-In . SVG Version: 6.00 Build 0)  -->
<svg version="1.1" id="레이어_1" xmlns="http://www.w3.org/2000/svg" xmlns:xlink="http://www.w3.org/1999/xlink" x="0px"
	 y="0px" viewBox="0 0 100 100" style="enable-background:new 0 0 100 100;" xml:space="preserve">
<style type="text/css">
	.st0{fill:#FFFFFF;}
	.st1{fill:none;}
</style>
<g>
	<path class="st0" d="M48.5,77.4v3.5h-18v-3.5H48.5z M31,74.7v-3.5h17l-0.2,5.2h-4.4v-1.7H31z M48,89.9H31v-7.8h17V89.9z M35.7,85.5
		v1.1h7.6v-1.1H35.7z"/>
	<path class="st0" d="M66.6,82.1v1c0.8,0.2,1.4,0.6,1.8,1.2c0.4,0.6,0.6,1.3,0.6,2.1c0,1.1-0.3,2-1,2.6s-1.6,0.9-2.9,0.9h-9.2
		c-1.2,0-2.2-0.3-2.9-0.9c-0.7-0.6-1-1.5-1-2.6c0-0.9,0.2-1.6,0.6-2.1c0.4-0.6,1-1,1.8-1.2v-1h-2.9v-3h18v3H66.6z M55.9,78.2
		c-1.2,0-2.1-0.3-2.8-1c-0.7-0.6-1.1-1.5-1.1-2.6c0-1.1,0.4-1.9,1.1-2.6c0.7-0.6,1.7-0.9,2.8-0.9h9.2c1.2,0,2.1,0.3,2.8,0.9
		c0.7,0.6,1.1,1.5,1.1,2.6c0,1.1-0.4,1.9-1.1,2.6c-0.7,0.6-1.7,1-2.8,1H55.9z M57.2,74.2c-0.1,0-0.2,0-0.3,0.1
		c-0.1,0.1-0.1,0.2-0.1,0.3c0,0.1,0,0.2,0.1,0.3c0.1,0.1,0.2,0.1,0.3,0.1h6.7c0.1,0,0.2,0,0.3-0.1s0.1-0.2,0.1-0.3
		c0-0.1,0-0.2-0.1-0.3s-0.2-0.1-0.3-0.1H57.2z M63.8,86.9c0.3,0,0.5-0.2,0.5-0.5c0-0.3-0.2-0.5-0.5-0.5h-6.7c-0.3,0-0.5,0.2-0.5,0.5
		c0,0.3,0.2,0.5,0.5,0.5H63.8z M61.9,82.9v-0.8h-2.8v0.8H61.9z"/>
</g>
<g id="그룹_4951" transform="translate(226.133 1569.801)">
	<path id="패스_717" class="st0" d="M-201.5-1506.8h9v-18h-9V-1506.8z M-199.7-1523h5.4v14.4h-5.4V-1523z"/>
	<path id="패스_718" class="st0" d="M-173.6-1506.8h9v-54h-9V-1506.8z M-171.8-1559h5.4v50.4h-5.4V-1559z"/>
	<path id="패스_719" class="st0" d="M-159.7-1545.5v38.7h9v-38.7H-159.7z M-152.5-1508.6h-5.4v-35.1h5.4V-1508.6z"/>
	<path id="패스_720" class="st0" d="M-187.5-1506.8h9v-30.6h-9V-1506.8z M-185.7-1535.6h5.4v27h-5.4V-1535.6z"/>
	<path id="패스_721" class="st0" d="M-184.8-1552.7v1.8h3.7l-21,21l1.3,1.3l21-21v3.7h1.8v-6.7H-184.8z"/>
</g>
<rect class="st1" width="100" height="100"/>
</svg>
