<?xml version="1.0" encoding="utf-8"?>
<!-- Generator: Adobe Illustrator 25.2.1, SVG Export Plug-In . SVG Version: 6.00 Build 0)  -->
<svg version="1.1" id="레이어_1" xmlns="http://www.w3.org/2000/svg" xmlns:xlink="http://www.w3.org/1999/xlink" x="0px"
	 y="0px" viewBox="0 0 100 100" style="enable-background:new 0 0 100 100;" xml:space="preserve">
<style type="text/css">
	.st0{fill:#FFFFFF;}
	.st1{fill:none;}
</style>
<g>
	<path class="st0" d="M35.6,71.2v1.3h1.5v-1.3h4.7v10.1H30.9V71.2H35.6z M47.4,88.8c-0.7,0.7-1.7,1.1-2.8,1.1h-9.1
		c-1.1,0-2.1-0.4-2.8-1.1c-0.7-0.7-1.1-1.6-1.1-2.8c0-1.1,0.4-2,1.1-2.8c0.7-0.7,1.7-1.1,2.8-1.1h9.1c1.1,0,2.1,0.4,2.8,1.1
		c0.7,0.7,1.1,1.6,1.1,2.8C48.5,87.2,48.1,88.1,47.4,88.8z M37.1,77.5v-1.2h-1.5v1.2H37.1z M36.7,85.6c-0.1,0-0.2,0-0.3,0.1
		c-0.1,0.1-0.1,0.2-0.1,0.3c0,0.1,0,0.2,0.1,0.3c0.1,0.1,0.2,0.1,0.3,0.1h6.6c0.1,0,0.2,0,0.3-0.1c0.1-0.1,0.1-0.2,0.1-0.3
		c0-0.1,0-0.2-0.1-0.3c-0.1-0.1-0.2-0.1-0.3-0.1H36.7z M48.5,70.9v10.5h-4.7v-1.4h-1.5v-3.2h1.5v-1.3h-1.5v-3.2h1.5v-1.3H48.5z"/>
	<path class="st0" d="M56.7,85.2v1H69v3.8H52v-5.2h3.2v-1h-3.7v-3.5h12.1v3.5h-3.7v1.5H56.7z M69.1,70.9v13.8h-4.7v-6.5h-1.8V77
		c-0.3,0.7-0.8,1.2-1.5,1.7c-0.7,0.4-1.4,0.6-2.3,0.6h-2.7c-1.2,0-2.3-0.4-3-1.1s-1.2-1.7-1.2-3s0.4-2.2,1.2-3s1.8-1.1,3-1.1h2.7
		c1.1,0,2,0.3,2.8,0.9c0.7,0.6,1.2,1.4,1.3,2.5h1.4v-3.5H69.1z M57.9,75.7c0.2,0,0.3-0.1,0.4-0.2c0.1-0.1,0.2-0.3,0.2-0.4
		c0-0.2-0.1-0.3-0.2-0.4s-0.3-0.2-0.4-0.2H57c-0.2,0-0.3,0.1-0.4,0.2s-0.2,0.2-0.2,0.4c0,0.2,0.1,0.3,0.2,0.4
		c0.1,0.1,0.3,0.2,0.4,0.2H57.9z"/>
</g>
<g id="그룹_4954" transform="translate(-70.341 1570.356)">
	<path id="패스_732" class="st0" d="M145.3-1554.8c-2.9-2.9-6.8-4.5-10.8-4.5c-4.1,0-8,1.6-10.8,4.5l-3.1,3l-3.1-3
		c-2.9-2.9-6.8-4.5-10.8-4.5c-4.1,0-8,1.6-10.8,4.5c-3.3,3.3-4.9,8-4.4,12.7c0.1,0.5,0.5,0.9,1,0.8c0,0,0,0,0,0
		c0.5-0.1,0.9-0.5,0.8-1c0,0,0,0,0,0c-0.5-4.1,1-8.3,3.9-11.2c2.5-2.6,6-4,9.6-4c3.6,0,7,1.4,9.6,4l3.7,3.6c0.3,0.3,0.9,0.3,1.3,0
		l3.8-3.7c2.5-2.6,6-4,9.6-4c3.6,0,7,1.4,9.6,4c5.3,5.4,5.3,14,0,19.4l-23.5,23.8l-19.7-20c-0.3-0.4-0.9-0.4-1.3,0c0,0,0,0,0,0
		c-0.4,0.3-0.4,0.9,0,1.3l20.4,20.6c0.2,0.2,0.4,0.3,0.6,0.3c0.2,0,0.5-0.1,0.6-0.3l24.1-24.4C151.3-1539,151.3-1548.7,145.3-1554.8
		z"/>
	<path id="패스_733" class="st0" d="M106-1536.5l1.8-2.1l4.8,10.4c0.1,0.3,0.5,0.5,0.9,0.5c0.4,0,0.7-0.2,0.8-0.6l4.9-13.7
		l5.5,17.3c0.1,0.3,0.4,0.6,0.7,0.6c0,0,0.1,0,0.1,0c0.3,0,0.6-0.2,0.8-0.4l6.7-10.3c0.3-0.4,0.2-1-0.3-1.2c-0.4-0.3-1-0.2-1.2,0.3
		l-5.7,8.8l-5.7-18c-0.1-0.4-0.5-0.6-0.8-0.6c-0.4,0-0.7,0.2-0.9,0.6l-5.1,14.1l-4.5-9.7c-0.1-0.3-0.4-0.5-0.7-0.5
		c-0.3,0-0.6,0.1-0.8,0.3l-2.4,2.8h-9c-0.5,0-0.9,0.4-0.9,0.9c0,0,0,0,0,0c0,0.5,0.4,0.9,0.9,0.9l0,0h9.4
		C105.6-1536.1,105.8-1536.3,106-1536.5z"/>
</g>
<rect class="st1" width="100" height="100"/>
</svg>
