<?xml version="1.0" encoding="utf-8"?>
<!-- Generator: Adobe Illustrator 25.2.1, SVG Export Plug-In . SVG Version: 6.00 Build 0)  -->
<svg version="1.1" id="레이어_1" xmlns="http://www.w3.org/2000/svg" xmlns:xlink="http://www.w3.org/1999/xlink" x="0px"
	 y="0px" viewBox="0 0 100 100" style="enable-background:new 0 0 100 100;" xml:space="preserve">
<style type="text/css">
	.st0{fill:#FFFFFF;}
</style>
<g id="그룹_4955" transform="translate(-105.957 1569.125)">
	<path id="패스_734" class="st0" d="M147.2-1513.3c0.5,0,0.9-0.4,0.9-0.9c0,0,0,0,0,0v-38.7c0-0.5-0.4-0.9-0.9-0.9l0,0h-7.6
		c-0.5,0-0.9,0.4-0.9,0.9c0,0,0,0,0,0v38.7c0,0.5,0.4,0.9,0.9,0.9l0,0H147.2z M140.4-1552h5.8v36.9h-5.8V-1552z"/>
	<path id="패스_735" class="st0" d="M153-1546.6h13c0.5,0,0.9-0.4,0.9-0.9c0,0,0,0,0,0v-5.4c0-0.5-0.4-0.9-0.9-0.9l0,0h-13
		c-0.5,0-0.9,0.4-0.9,0.9c0,0,0,0,0,0v5.4C152.1-1547,152.5-1546.6,153-1546.6L153-1546.6z M153.9-1552h11.2v3.6h-11.2V-1552z"/>
	<path id="패스_736" class="st0" d="M152.1-1536.7c0,0.5,0.4,0.9,0.9,0.9l0,0h13c0.5,0,0.9-0.4,0.9-0.9c0,0,0,0,0,0v-5.4
		c0-0.5-0.4-0.9-0.9-0.9l0,0h-13c-0.5,0-0.9,0.4-0.9,0.9c0,0,0,0,0,0V-1536.7z M153.9-1541.2h11.2v3.6h-11.2V-1541.2z"/>
	<path id="패스_737" class="st0" d="M152.1-1525.9c0,0.5,0.4,0.9,0.9,0.9l0,0h13c0.5,0,0.9-0.4,0.9-0.9c0,0,0,0,0,0v-5.4
		c0-0.5-0.4-0.9-0.9-0.9l0,0h-13c-0.5,0-0.9,0.4-0.9,0.9c0,0,0,0,0,0V-1525.9z M153.9-1530.4h11.2v3.6h-11.2V-1530.4z"/>
	<path id="패스_738" class="st0" d="M152.1-1515.1c0,0.5,0.4,0.9,0.9,0.9l0,0h13c0.5,0,0.9-0.4,0.9-0.9c0,0,0,0,0,0v-5.4
		c0-0.5-0.4-0.9-0.9-0.9l0,0h-13c-0.5,0-0.9,0.4-0.9,0.9c0,0,0,0,0,0V-1515.1z M153.9-1519.6h11.2v3.6h-11.2V-1519.6z"/>
	<path id="패스_739" class="st0" d="M180.9-1554.7h-6.4c-0.5-3.1-3.2-5.4-6.4-5.4h-30.7c-3.6,0-6.5,2.9-6.5,6.5v39.9
		c0,0.5,0.4,0.9,0.9,0.9l0,0c0.5,0,0.9-0.4,0.9-0.9c0,0,0,0,0,0v-39.9c0-2.6,2.1-4.7,4.7-4.7h30.7c2.6,0,4.7,2.1,4.7,4.7v39.9
		c0,0.5,0.4,0.9,0.9,0.9l0,0c0.5,0,0.9-0.4,0.9-0.9c0,0,0,0,0,0v-16.6h6.3c0.5,0,0.9-0.4,0.9-0.9c0,0,0,0,0,0v-22.5
		C181.8-1554.3,181.4-1554.7,180.9-1554.7z M180-1532.2h-5.4v-20.7h5.4V-1532.2z"/>
	<path id="패스_740" class="st0" d="M180.9-1509.3h-49c-0.5,0-0.9,0.4-0.9,0.9c0,0,0,0,0,0c0,0.5,0.4,0.9,0.9,0.9l0,0h49
		c0.5,0,0.9-0.4,0.9-0.9c0,0,0,0,0,0C181.8-1508.9,181.4-1509.3,180.9-1509.3L180.9-1509.3z"/>
</g>
<g>
	<path class="st0" d="M41.8,85.7h6.6v3.5h-18v-3.5H37V84h4.8V85.7z M47.9,71.5v3.2h-17v-3.2h5.9v-1.4H42v1.4H47.9z M43.5,75.5
		c1.2,0,2.3,0.4,3,1.1c0.8,0.7,1.1,1.6,1.1,2.8c0,1.2-0.4,2.1-1.1,2.8c-0.8,0.7-1.8,1.1-3,1.1h-8.2c-1.2,0-2.3-0.4-3-1.1
		c-0.8-0.7-1.1-1.6-1.1-2.8c0-1.2,0.4-2.1,1.1-2.8c0.8-0.7,1.8-1.1,3-1.1H43.5z M42.7,79.8c0.1,0,0.2,0,0.3-0.1
		c0.1-0.1,0.1-0.2,0.1-0.3c0-0.1,0-0.2-0.1-0.3c-0.1-0.1-0.2-0.1-0.3-0.1H36c-0.1,0-0.2,0-0.3,0.1c-0.1,0.1-0.1,0.2-0.1,0.3
		c0,0.1,0,0.2,0.1,0.3c0.1,0.1,0.2,0.1,0.3,0.1H42.7z"/>
	<path class="st0" d="M51.4,71.2H58v2.3h-2.2v0.6H58v2.3h-2.2V77h2.9v2.3h-7.4V71.2z M57.1,86.4v0.8h12.5v2.8H52.4v-6.2h12.3v-0.8
		H52.4v-2.8h17v6.2H57.1z M64.2,79.5h-4.5v-3.1h-1v-3.2h1v-2.2h4.5V79.5z M69.4,79.5h-4.4v-8.6h4.4V79.5z"/>
</g>
</svg>
