<?xml version="1.0" encoding="utf-8"?>
<!-- Generator: Adobe Illustrator 25.2.1, SVG Export Plug-In . SVG Version: 6.00 Build 0)  -->
<svg version="1.1" id="레이어_1" xmlns="http://www.w3.org/2000/svg" xmlns:xlink="http://www.w3.org/1999/xlink" x="0px"
	 y="0px" viewBox="0 0 100 100" style="enable-background:new 0 0 100 100;" xml:space="preserve">
<style type="text/css">
	.st0{fill:#FFFFFF;}
	.st1{fill:none;}
	.st2{fill:#FFFFFF;stroke:#FFFFFF;stroke-width:1.5;stroke-miterlimit:10;}
	.st3{fill:none;stroke:#FFFFFF;stroke-width:1.5;stroke-miterlimit:10;}
</style>
<g id="Rectangle_2474">
	<path class="st0" d="M73,11v31.3H27V11H73 M74.5,9.5H25.5v34.3h49.1V9.5L74.5,9.5z"/>
</g>
<g>
	<path class="st0" d="M42,71.8v3H30.8v-3H34v-1.5h4.7v1.5H42z M37.5,75.3c1.3,0,2.3,0.3,3.1,1c0.8,0.7,1.1,1.6,1.1,2.7
		c0,1.1-0.4,2-1.1,2.7c-0.8,0.7-1.8,1-3.1,1h-2.3c-1.3,0-2.3-0.3-3.1-1c-0.8-0.7-1.1-1.6-1.1-2.7c0-1.1,0.4-2,1.1-2.7s1.8-1,3.1-1
		H37.5z M43.6,89.8v-2.6H31.2v-3.5l17,0v6.2H43.6z M37,79.7c0.2,0,0.3-0.1,0.4-0.2c0.1-0.1,0.2-0.3,0.2-0.5c0-0.2-0.1-0.3-0.2-0.4
		c-0.1-0.1-0.3-0.2-0.4-0.2h-1.2c-0.2,0-0.3,0.1-0.4,0.2c-0.1,0.1-0.2,0.3-0.2,0.4c0,0.2,0.1,0.3,0.2,0.5c0.1,0.1,0.3,0.2,0.4,0.2
		H37z M48.3,75h1.9v3.7h-1.9v4h-4.7v-12h4.7V75z"/>
	<path class="st0" d="M56.9,85.1v1h12.3v3.8h-17v-5.2h3.2v-1h-3.7v-3.5h12.1v3.5h-3.7v1.5H56.9z M69.2,70.8v13.8h-4.7v-6.5h-1.8
		v-1.2c-0.3,0.7-0.8,1.2-1.5,1.7c-0.7,0.4-1.4,0.6-2.3,0.6h-2.7c-1.2,0-2.3-0.4-3-1.1s-1.2-1.7-1.2-3s0.4-2.2,1.2-3s1.8-1.1,3-1.1
		H59c1.1,0,2,0.3,2.8,0.9c0.7,0.6,1.2,1.4,1.3,2.5h1.4v-3.5H69.2z M58.1,75.6c0.2,0,0.3-0.1,0.4-0.2s0.2-0.3,0.2-0.4
		c0-0.2-0.1-0.3-0.2-0.4s-0.3-0.2-0.4-0.2h-0.9c-0.2,0-0.3,0.1-0.4,0.2s-0.2,0.2-0.2,0.4c0,0.2,0.1,0.3,0.2,0.4s0.3,0.2,0.4,0.2
		H58.1z"/>
</g>
<rect class="st1" width="100" height="100"/>
<line id="Line_469" class="st2" x1="43.5" y1="43.8" x2="33.2" y2="62"/>
<line id="Line_470" class="st2" x1="56.7" y1="43.8" x2="67" y2="62"/>
<g id="Rectangle_2475">
	<path class="st0" d="M68,16v21.3H32V16H68 M69.5,14.5H30.5v24.3h39.1V14.5L69.5,14.5z"/>
</g>
<g id="Group_5400" transform="translate(6.863)">
	<path id="Path_2467" class="st3" d="M25.5,9"/>
	<path id="Path_2468" class="st3" d="M60.8,9"/>
</g>
<line id="Line_467" class="st3" x1="39.8" y1="38.8" x2="39.8" y2="26.8"/>
<line id="Line_468" class="st3" x1="44.9" y1="38.8" x2="44.9" y2="26.8"/>
<g id="Rectangle_2476">
	<path class="st0" d="M48,28.3c1.4,0,2.5,1.1,2.5,2.5v4c0,1.4-1.1,2.5-2.5,2.5H38c-1.4,0-2.5-1.1-2.5-2.5v-4c0-1.4,1.1-2.5,2.5-2.5
		H48 M48,26.8H38c-2.2,0-4,1.8-4,4v4c0,2.2,1.8,4,4,4h10c2.2,0,4-1.8,4-4v-4C52,28.6,50.2,26.8,48,26.8L48,26.8z"/>
</g>
</svg>
