<?xml version="1.0" encoding="utf-8"?>
<!-- Generator: Adobe Illustrator 25.2.1, SVG Export Plug-In . SVG Version: 6.00 Build 0)  -->
<svg version="1.1" id="레이어_1" xmlns="http://www.w3.org/2000/svg" xmlns:xlink="http://www.w3.org/1999/xlink" x="0px"
	 y="0px" viewBox="0 0 100 100" style="enable-background:new 0 0 100 100;" xml:space="preserve">
<style type="text/css">
	.st0{fill:#FFFFFF;}
	.st1{fill:none;}
</style>
<g>
	<path class="st0" d="M32.2,82.5v2.4h-4.7v-2.4h-7.1v-3.7h18v3.7H32.2z M33.1,74.9v2.6h4.5l0.2-6.3h-17v3.8H33.1z M20.8,83.8v6.1h17
		v-3.8H25.5v-2.4H20.8z"/>
	<path class="st0" d="M41,85.4c0.9,0,1.9-0.3,2.8-1c1-0.7,1.8-1.8,2.4-3.3c0.7-1.6,1-3.7,1-6.2h-6v-3.8H52v3.8
		c0,2.9-0.4,5.4-1.3,7.6s-2.1,3.8-3.7,5c-1.6,1.2-3.4,1.8-5.4,1.8L41,85.4z M58.8,70.9v19h-4.7v-19H58.8z"/>
	<path class="st0" d="M67.5,78.6h6.4v3.7H61.8v-3.7h1.5v-2.4h4.2V78.6z M62.3,74.9v-3.8h10.8l-0.2,6.4h-4.2v-2.7H62.3z M79.3,89.9
		h-17v-6.6H67v2.9h12.3V89.9z M79.3,75.4h1.9v3.8h-1.9v4.6h-4.7V70.9h4.7V75.4z"/>
</g>
<path id="Path_2466" class="st0" d="M75.6,34.8h-2.9c-0.5-11.9-10.1-21.5-22-22V10c0-0.5-0.4-1-1-1c-0.5,0-1,0.4-1,1v2.9
	c-11.9,0.5-21.5,10.1-22,22H24c-0.5,0-1,0.4-1,1c0,0.5,0.4,1,1,1h2.9c0.5,11.9,10.1,21.5,22,22v2.9c0,0.5,0.4,1,1,1c0.5,0,1-0.4,1-1
	v-2.9c11.9-0.5,21.5-10.1,22-22h2.9c0.5,0,1-0.4,1-1C76.5,35.2,76.1,34.8,75.6,34.8L75.6,34.8z M70.8,34.8H69
	c-0.5-9.9-8.4-17.8-18.3-18.3v-1.8C61.6,15.3,70.3,24,70.8,34.8L70.8,34.8z M63.8,32.3c-0.5,0-1,0.4-1,1v1.6h-5.7v-0.7
	c0-0.5-0.4-1-1-1c-0.5,0-1,0.4-1,1l0,0v0.7h-1.9c-0.5,0-1,0.4-1,1c0,0.5,0.4,1,1,1l0,0h1.9v0.7c0,0.5,0.4,1,1,1c0.5,0,1-0.4,1-1
	v-0.7h5.7v1.6c0,0.5,0.4,1,1,1c0.5,0,1-0.4,1-1v-1.6h2.4c-0.5,8.8-7.5,15.9-16.4,16.4v-2.4h1.6c0.5,0,1-0.4,1-1c0-0.5-0.4-1-1-1
	h-1.6v-5.7h0.7c0.5,0,1-0.4,1-1c0-0.5-0.4-1-1-1h-0.7v-1.9c0-0.5-0.4-1-1-1c-0.5,0-1,0.4-1,1l0,0v1.9h-0.7c-0.5,0-1,0.4-1,1
	c0,0.5,0.4,1,1,1h0.7v5.7h-1.6c-0.5,0-1,0.4-1,1c0,0.5,0.4,1,1,1h1.6v2.4c-8.8-0.5-15.9-7.5-16.4-16.4h2.4v1.6c0,0.5,0.4,1,1,1
	c0.5,0,1-0.4,1-1v-1.6h5.7v0.7c0,0.5,0.4,1,1,1c0.5,0,1-0.4,1-1v-0.7h1.9c0.5,0,1-0.4,1-1c0-0.5-0.4-1-1-1h-1.9v-0.7
	c0-0.5-0.4-1-1-1c-0.5,0-1,0.4-1,1v0.7h-5.7v-1.6c0-0.5-0.4-1-1-1c-0.5,0-1,0.4-1,1v1.6h-2.4C32.9,26,40,18.9,48.8,18.4v2.4h-1.6
	c-0.5,0-1,0.4-1,1c0,0.5,0.4,1,1,1h1.6v5.7h-0.7c-0.5,0-1,0.4-1,1c0,0.5,0.4,1,1,1l0,0h0.7v1.9c0,0.5,0.4,1,1,1c0.5,0,1-0.4,1-1
	v-1.9h0.7c0.5,0,1-0.4,1-1c0-0.5-0.4-1-1-1h-0.7v-5.7h1.6c0.5,0,1-0.4,1-1c0-0.5-0.4-1-1-1l0,0h-1.6v-2.4
	c8.8,0.5,15.9,7.5,16.4,16.4h-2.4v-1.6C64.7,32.7,64.3,32.3,63.8,32.3C63.8,32.3,63.8,32.3,63.8,32.3L63.8,32.3z M48.8,14.8v1.8
	C38.9,17,31,24.9,30.5,34.8h-1.8C29.3,24,38,15.3,48.8,14.8L48.8,14.8z M28.8,36.7h1.8C31,46.6,38.9,54.5,48.8,55v1.8
	C38,56.3,29.3,47.6,28.8,36.7L28.8,36.7z M50.7,56.8V55c9.9-0.5,17.8-8.4,18.3-18.3h1.8C70.3,47.6,61.6,56.3,50.7,56.8z"/>
<rect class="st1" width="100" height="100"/>
</svg>
